<?xml version="1.0" encoding="UTF-8" standalone="no"?>
<svg
   height="100"
   viewBox="0 0 222 32"
   width="667"
   version="1.1"
   id="svg15"
   sodipodi:docname="HeaderLogo_PhillsDEVEnvironment.svg"
   inkscape:version="1.3.2 (091e20e, 2023-11-25, custom)"
   xmlns:inkscape="http://www.inkscape.org/namespaces/inkscape"
   xmlns:sodipodi="http://sodipodi.sourceforge.net/DTD/sodipodi-0.dtd"
   xmlns="http://www.w3.org/2000/svg"
   xmlns:svg="http://www.w3.org/2000/svg">
  <defs
     id="defs15" />
  <sodipodi:namedview
     id="namedview15"
     pagecolor="#ffffff"
     bordercolor="#000000"
     borderopacity="0.25"
     inkscape:showpageshadow="2"
     inkscape:pageopacity="0.0"
     inkscape:pagecheckerboard="0"
     inkscape:deskcolor="#d1d1d1"
     inkscape:zoom="5.5945946"
     inkscape:cx="189.55797"
     inkscape:cy="73.285024"
     inkscape:window-width="1920"
     inkscape:window-height="992"
     inkscape:window-x="-8"
     inkscape:window-y="-8"
     inkscape:window-maximized="1"
     inkscape:current-layer="svg15" />
  <g
     id="g37"
     transform="matrix(0.11387949,0,0,0.08290938,-8.9216606,0.67790818)">transform=&quot;scale(0.2) translate(100, 185)&quot;
      <!-- Jar Outline -->
<rect
   x="100"
   y="63"
   width="200"
   height="300"
   rx="40"
   ry="40"
   fill="none"
   stroke="#000000"
   stroke-width="5"
   id="rect1" />
<!-- Jar Neck with rounded corners and black fill -->
<rect
   x="140"
   y="22"
   width="120"
   height="40"
   rx="10"
   ry="10"
   fill="#000000"
   stroke="#000000"
   stroke-width="5"
   id="rect2" />
<!-- 0s and 1s Inside the Jar -->
<text
   x="115"
   y="100"
   font-family="Arial"
   font-size="40px"
   fill="#000000"
   id="text2">0</text>
<text
   x="145"
   y="100"
   font-family="Arial"
   font-size="40px"
   fill="#000000"
   id="text3">1</text>
<text
   x="175"
   y="100"
   font-family="Arial"
   font-size="40px"
   fill="#000000"
   id="text4">0</text>
<text
   x="205"
   y="100"
   font-family="Arial"
   font-size="40px"
   fill="#000000"
   id="text5">1</text>
<text
   x="235"
   y="100"
   font-family="Arial"
   font-size="40px"
   fill="#000000"
   id="text6">0</text>
<text
   x="265"
   y="100"
   font-family="Arial"
   font-size="40px"
   fill="#000000"
   id="text7">1</text>
<text
   x="115"
   y="150"
   font-family="Arial"
   font-size="40px"
   fill="#000000"
   id="text8">1</text>
<text
   x="145"
   y="150"
   font-family="Arial"
   font-size="40px"
   fill="#000000"
   id="text9">0</text>
<text
   x="175"
   y="150"
   font-family="Arial"
   font-size="40px"
   fill="#000000"
   id="text10">1</text>
<text
   x="205"
   y="150"
   font-family="Arial"
   font-size="40px"
   fill="#000000"
   id="text11">0</text>
<text
   x="235"
   y="150"
   font-family="Arial"
   font-size="40px"
   fill="#000000"
   id="text12">1</text>
<text
   x="265"
   y="150"
   font-family="Arial"
   font-size="40px"
   fill="#000000"
   id="text13">0</text>
<text
   x="115"
   y="200"
   font-family="Arial"
   font-size="40px"
   fill="#000000"
   id="text14">0</text>
<text
   x="145"
   y="200"
   font-family="Arial"
   font-size="40px"
   fill="#000000"
   id="text15">1</text>
<text
   x="175"
   y="200"
   font-family="Arial"
   font-size="40px"
   fill="#000000"
   id="text16">0</text>
<text
   x="205"
   y="200"
   font-family="Arial"
   font-size="40px"
   fill="#000000"
   id="text17">1</text>
<text
   x="235"
   y="200"
   font-family="Arial"
   font-size="40px"
   fill="#000000"
   id="text18">0</text>
<text
   x="265"
   y="200"
   font-family="Arial"
   font-size="40px"
   fill="#000000"
   id="text19">1</text>
<text
   x="115"
   y="250"
   font-family="Arial"
   font-size="40px"
   fill="#000000"
   id="text20">1</text>
<text
   x="145"
   y="250"
   font-family="Arial"
   font-size="40px"
   fill="#000000"
   id="text21">0</text>
<text
   x="175"
   y="250"
   font-family="Arial"
   font-size="40px"
   fill="#000000"
   id="text22">1</text>
<text
   x="205"
   y="250"
   font-family="Arial"
   font-size="40px"
   fill="#000000"
   id="text23">0</text>
<text
   x="235"
   y="250"
   font-family="Arial"
   font-size="40px"
   fill="#000000"
   id="text24">1</text>
<text
   x="265"
   y="250"
   font-family="Arial"
   font-size="40px"
   fill="#000000"
   id="text25">0</text>
<text
   x="115"
   y="300"
   font-family="Arial"
   font-size="40px"
   fill="#000000"
   id="text26">0</text>
<text
   x="145"
   y="300"
   font-family="Arial"
   font-size="40px"
   fill="#000000"
   id="text27">1</text>
<text
   x="175"
   y="300"
   font-family="Arial"
   font-size="40px"
   fill="#000000"
   id="text28">0</text>
<text
   x="205"
   y="300"
   font-family="Arial"
   font-size="40px"
   fill="#000000"
   id="text29">1</text>
<text
   x="235"
   y="300"
   font-family="Arial"
   font-size="40px"
   fill="#000000"
   id="text30">0</text>
<text
   x="265"
   y="300"
   font-family="Arial"
   font-size="40px"
   fill="#000000"
   id="text31">1</text>
<text
   x="115"
   y="350"
   font-family="Arial"
   font-size="40px"
   fill="#000000"
   id="text32">1</text>
<text
   x="145"
   y="350"
   font-family="Arial"
   font-size="40px"
   fill="#000000"
   id="text33">0</text>
<text
   x="175"
   y="350"
   font-family="Arial"
   font-size="40px"
   fill="#000000"
   id="text34">1</text>
<text
   x="205"
   y="350"
   font-family="Arial"
   font-size="40px"
   fill="#000000"
   id="text35">0</text>
<text
   x="235"
   y="350"
   font-family="Arial"
   font-size="40px"
   fill="#000000"
   id="text36">1</text>
<text
   x="265"
   y="350"
   font-family="Arial"
   font-size="40px"
   fill="#000000"
   id="text37">0</text>
</g>
  <text
     x="31.314661"
     y="16.759405"
     font-family="Arial"
     font-size="14.0246px"
     fill="#0000ff"
     dominant-baseline="middle"
     id="text38"
     style="stroke-width:0.467486"
     transform="scale(0.98834533,1.0117921)">Phill's DEV Environment</text>
  <text
     x="55.298824"
     y="17.987909"
     font-family="Arial"
     font-size="15.2664px"
     fill="#0000ff"
     dominant-baseline="middle"
     id="text39"
     style="stroke-width:0.508879"
     transform="scale(1.0879393,0.91916892)" />
  <text
     x="70.505508"
     y="32.68314"
     font-family="Arial"
     font-size="8.56925px"
     fill="#5a5a5a"
     dominant-baseline="middle"
     id="text40"
     style="stroke-width:0.571285"
     transform="scale(1.2394537,0.80680706)">Powered by</text>
  <g
     transform="matrix(0.33779148,0,0,0.27952683,144.65799,22.296024)"
     id="g54">
    <g
       fill="#cc1c1c"
       id="g48">
      <path
         d="M 94.1,29.8 H 91.6 L 94.5,14.7 H 97 Z"
         id="path40" />
      <path
         d="m 113.6,14.7 -2.9,15.1 h -2.2 l -4.2,-10.3 -2,10.3 h -2.5 l 2.9,-15.1 h 2.1 l 4.3,10.5 2,-10.5 z"
         id="path41" />
      <path
         d="m 130,14.7 -2.9,15.1 h -2.2 l -4.2,-10.3 -2,10.3 h -2.5 l 2.9,-15.1 h 2.1 l 4.3,10.5 2,-10.5 z"
         id="path42" />
      <path
         d="m 137.6,30 c -3.4,0 -5.2,-2.3 -4.3,-6.8 l 0.4,-1.9 c 0.9,-4.8 3.4,-6.8 7,-6.8 3.4,0 5.2,2.3 4.3,6.8 l -0.4,1.9 c -0.9,4.8 -3.3,6.8 -7,6.8 z m -1.8,-6.8 c -0.6,3.3 0.2,4.6 2.2,4.6 2,0 3.4,-1.3 4,-4.6 l 0.4,-1.9 c 0.6,-3.3 -0.2,-4.6 -2.2,-4.6 -2,0 -3.4,1.3 -4,4.6 z"
         id="path43" />
      <path
         d="m 152,14.7 1.6,11.1 5.9,-11.1 h 2.9 l -8.3,15.1 h -2.3 l -2.4,-15.1 z"
         id="path44" />
      <path
         d="m 161,29.8 8.2,-15.1 h 2.4 l 2.3,15.1 h -2.6 l -0.4,-3.1 h -5.5 l -1.6,3.1 z m 5.6,-5.3 h 4 l -0.8,-6.1 z"
         id="path45" />
      <path
         d="m 189.8,14.7 -0.4,2.2 H 185 l -2.5,12.9 H 180 l 2.5,-12.9 h -4.4 l 0.4,-2.2 z"
         id="path46" />
      <path
         d="m 195.8,30 c -3.4,0 -5.2,-2.3 -4.3,-6.8 l 0.4,-1.9 c 0.9,-4.8 3.4,-6.8 7,-6.8 3.4,0 5.2,2.3 4.3,6.8 l -0.4,1.9 c -1,4.8 -3.3,6.8 -7,6.8 z M 194,23.2 c -0.6,3.3 0.2,4.6 2.2,4.6 2,0 3.4,-1.3 4,-4.6 l 0.4,-1.9 c 0.6,-3.3 -0.2,-4.6 -2.2,-4.6 -2,0 -3.4,1.3 -4,4.6 z"
         id="path47" />
      <path
         d="m 214.9,29.8 -1.7,-6.1 h -3 l -1.2,6.1 h -2.5 l 2.9,-15.1 h 5.2 c 2.9,0 4.8,1.4 4.8,3.9 a 4.6,4.6 0 0 1 -3.6,4.7 l 2,6.5 z M 213,21.5 c 2.6,0 3.7,-0.8 3.7,-2.8 0,-1.3 -0.9,-1.8 -2.8,-1.8 h -2.4 l -0.9,4.6 z"
         id="path48" />
    </g>
    <path
       d="M 3.8,9.2 C 4.2,4.4 7.2,2 13.2,2 c 3.2,0 5.7,0.7 7.3,2.2 1.6,1.5 2.1,3.1 2.1,6.2 v 9.7 c 0,2.3 0.1,2.6 0.8,3.6 H 17 A 8.45,8.45 0 0 1 16.5,22 8.4,8.4 0 0 1 10.4,24.2 c -4.7,0 -7.8,-2.6 -7.8,-6.6 0,-4 2.5,-6.1 8.4,-7 L 14.4,10 c 1.4,-0.2 1.9,-0.6 1.9,-1.4 0,-1.2 -1.2,-1.9 -3.2,-1.9 -2.3,0 -3.5,0.8 -3.8,2.5 z m 12.8,4.5 a 16.33,16.33 0 0 1 -2.3,0.7 L 12,14.8 c -2.2,0.5 -3.2,1.3 -3.2,2.5 0,1.4 1.2,2.2 3.2,2.2 a 4.89,4.89 0 0 0 4.6,-2.7 z"
       fill="#5a5a5a"
       id="path49" />
    <path
       d="M 34.2,2.6 34,6.4 C 35.3,2.9 36.9,2 41.4,2 v 5.9 a 9.74,9.74 0 0 0 -1.6,-0.1 5,5 0 0 0 -4.6,2.5 c -0.6,1.4 -0.8,3.4 -0.8,7.5 v 6 H 28.2 V 2.6 Z"
       fill="#5a5a5a"
       id="path50" />
    <path
       d="M 44.3,9.2 C 44.7,4.4 47.7,2 53.7,2 c 3.2,0 5.7,0.7 7.3,2.2 1.6,1.5 2.1,3.1 2.1,6.2 v 9.7 c 0,2.3 0.1,2.6 0.8,3.6 H 57.5 A 8.45,8.45 0 0 1 57,22 8.4,8.4 0 0 1 50.9,24.2 c -4.7,0 -7.8,-2.6 -7.8,-6.6 0,-4 2.5,-6.1 8.4,-7 L 54.9,10 c 1.4,-0.2 1.9,-0.6 1.9,-1.4 0,-1.2 -1.2,-1.9 -3.2,-1.9 -2.3,0 -3.5,0.8 -3.8,2.5 z M 57,13.7 a 16.33,16.33 0 0 1 -2.3,0.7 l -2.2,0.5 c -2.2,0.5 -3.2,1.3 -3.2,2.5 0,1.4 1.2,2.2 3.2,2.2 a 4.89,4.89 0 0 0 4.6,-2.7 v -3.2 z"
       fill="#5a5a5a"
       id="path51" />
    <path
       d="M 80.4,8.9 Q 79.95,6.5 76.8,6.5 c -1.8,0 -3,0.7 -3,1.8 0,0.8 0.6,1.2 2.6,1.6 l 3.9,0.8 c 2.6,0.5 3.9,1.1 4.8,2.1 a 6,6 0 0 1 1.6,4.3 c 0,4.5 -3.6,7.3 -9.5,7.3 -5.9,0 -9.5,-2.8 -9.9,-7.5 h 5.8 c 0.4,2 1.7,2.9 4.2,2.9 2,0 3.2,-0.8 3.2,-2.1 0,-1 -0.7,-1.5 -2.4,-1.9 l -3.9,-0.9 c -4.6,-1 -6.4,-2.7 -6.4,-6.1 0,-4.3 3.4,-6.8 9,-6.8 5.4,0 8.7,2.5 9.3,6.9 z"
       fill="#5a5a5a"
       id="path52" />
    <path
       d="M 86.9,29.8 H 35.3 l 0.3,-1.5 h 51.6 z"
       fill="#cc1c1c"
       id="path53" />
    <path
       d="M 171.5,10.1 H 92.8 l 0.3,-1.5 h 78.7 z"
       fill="#cc1c1c"
       id="path54" />
  </g>
</svg>
